<svg width="14" height="14" viewBox="0 0 14 14" fill="none" xmlns="http://www.w3.org/2000/svg">
<path d="M13.8333 7.00002C13.8333 6.04669 13.2466 5.22002 12.3733 4.77335C12.68 3.84669 12.5066 2.84002 11.8333 2.16669C11.16 1.49335 10.1533 1.32002 9.22663 1.62669C8.78663 0.753354 7.95329 0.166687 6.99996 0.166687C6.04663 0.166687 5.21996 0.753354 4.77996 1.62669C3.84663 1.32002 2.83996 1.49335 2.16663 2.16669C1.49329 2.84002 1.32663 3.84669 1.63329 4.77335C0.759959 5.22002 0.166626 6.04669 0.166626 7.00002C0.166626 7.95335 0.759959 8.78002 1.63329 9.22669C1.32663 10.1534 1.49329 11.16 2.16663 11.8334C2.83996 12.5067 3.84663 12.6734 4.77329 12.3734C5.21996 13.2467 6.04663 13.8334 6.99996 13.8334C7.95329 13.8334 8.78663 13.2467 9.22663 12.3734C10.1533 12.6734 11.16 12.5067 11.8333 11.8334C12.5066 11.16 12.68 10.1534 12.3733 9.22669C13.2466 8.78002 13.8333 7.95335 13.8333 7.00002ZM6.02663 9.80002L3.53329 7.30669L4.47329 6.36002L5.97996 7.86669L9.17996 4.38002L10.16 5.28669L6.02663 9.80002Z" fill="#4D94DB"/>
</svg>
